<svg viewBox="0 0 17 17" version="1.1" xmlns="http://www.w3.org/2000/svg" fill="#FFB22C;" stroke="#FFB22C;">
  <g>
    <title>862</title>

    <g stroke="none" fill="none" fill-rule="evenodd">
      <g transform="translate(1.000000, 0.000000)" fill="#FFB22C;">
        <path d="M13.993,0.006 L2.072,0.006 L0.012,8.761 L0.012,13.931 C0.012,15.265 0.484,15.959 1.816,15.959 L14.096,15.959 C15.342,15.959 15.981,15.432 15.981,13.848 L15.981,8.761 L13.993,0.006 L13.993,0.006 Z M10.016,10 L5.985,10 L5.985,8.969 L10.016,8.969 L10.016,10 L10.016,10 Z M1.505,8.01 L2.912,0.981 L13.177,0.981 L14.54,8.01 L1.505,8.01 L1.505,8.01 Z"></path>

        <!-- 内部の線を太く -->
        <g
          stroke="#609926"
          stroke-width="1.2"
          stroke-linecap="round"
          stroke-linejoin="round"
          fill="none"
        >
          <line x1="2.443" y1="3.324" x2="13.631" y2="3.324" />
          <line x1="1.974" y1="5.667" x2="14.086" y2="5.667" />

          <line x1="6.334" y1="0.981" x2="5.850" y2="8.01" />
          <line x1="9.755" y1="0.981" x2="10.195" y2="8.01" />
        </g>
      </g>
    </g>
  </g>
</svg>